# This file uses centimeters as units for non-parametric coordinates.

mtllib Skip.mtl
g default
v 1.064036 -0.149051 0.070562
v 1.064036 1.343793 0.070562
v 0.896325 -0.149051 0.070562
v 0.896325 1.343793 0.070562
v 0.896325 -0.149051 -0.070562
v 0.896325 1.343793 -0.070562
v 1.064036 -0.149051 -0.070562
v 1.064036 1.343793 -0.070562
v 0.126512 -0.206283 0.076361
v 0.154994 1.314740 0.074912
v 0.819875 0.583454 0.073969
v 0.155157 1.314729 -0.125554
v 0.820028 0.583443 -0.126494
v 0.126656 -0.206293 -0.124101
vt 0.375000 0.000000
vt 0.625000 0.000000
vt 0.375000 0.250000
vt 0.625000 0.250000
vt 0.375000 0.500000
vt 0.625000 0.500000
vt 0.375000 0.750000
vt 0.625000 0.750000
vt 0.375000 1.000000
vt 0.625000 1.000000
vt 0.875000 0.000000
vt 0.875000 0.250000
vt 0.125000 0.000000
vt 0.125000 0.250000
vt 0.375000 0.250000
vt 0.625000 0.000000
vt 0.625000 0.250000
vt 0.625000 0.500000
vt 0.375000 0.500000
vt 0.875000 0.000000
vt 0.875000 0.250000
vt 0.625000 0.750000
vt 0.000000 0.000000
vt 0.707107 0.000000
vt 0.707107 1.000000
vt 0.000000 1.000000
vn 0.000000 0.000000 1.000000
vn 0.000000 0.000000 1.000000
vn 0.000000 0.000000 1.000000
vn 0.000000 0.000000 1.000000
vn -1.000000 0.000000 0.000000
vn -1.000000 0.000000 0.000000
vn -1.000000 0.000000 0.000000
vn -1.000000 0.000000 0.000000
vn 0.000000 0.000000 -1.000000
vn 0.000000 0.000000 -1.000000
vn 0.000000 0.000000 -1.000000
vn 0.000000 0.000000 -1.000000
vn 1.000000 0.000000 0.000000
vn 1.000000 0.000000 0.000000
vn 1.000000 0.000000 0.000000
vn 1.000000 0.000000 0.000000
vn 0.000000 1.000000 0.000000
vn 0.000000 1.000000 0.000000
vn 0.000000 1.000000 0.000000
vn 0.000000 1.000000 0.000000
vn 0.000000 -1.000000 0.000001
vn 0.000000 -1.000000 0.000001
vn 0.000000 -1.000000 0.000001
vn 0.000000 -1.000000 0.000001
vn -0.774854 0.015117 0.631960
vn -0.797132 0.015507 0.603606
vn 0.002416 0.000908 0.999997
vn 0.739905 0.672711 0.000549
vn 0.739905 0.672711 0.000549
vn 0.739905 0.672711 0.000549
vn 0.739905 0.672711 0.000549
vn 0.751469 -0.659768 0.000590
vn 0.751469 -0.659768 0.000590
vn 0.751469 -0.659768 0.000590
vn 0.751469 -0.659768 0.000590
vn -0.775141 0.013916 -0.631635
vn -0.002416 -0.000910 -0.999997
vn -0.797959 0.014371 -0.602540
s off
g pCube3
usemtl initialShadingGroup
f 1/1/1 2/2/2 4/4/3 3/3/4
f 3/3/5 4/4/6 6/6/7 5/5/8
f 5/5/9 6/6/10 8/8/11 7/7/12
f 7/7/13 8/8/14 2/10/15 1/9/16
f 2/2/17 8/11/18 6/12/19 4/4/20
f 7/13/21 1/1/22 3/3/23 5/14/24
s 1
f 10/15/25 9/16/26 11/17/27
s off
f 10/15/28 11/17/29 13/18/30 12/19/31
f 9/16/32 14/20/33 13/21/34 11/17/35
s 1
f 12/19/36 13/18/37 14/22/38
f 10/23/25 12/24/36 14/25/38 9/26/26
