# This file uses centimeters as units for non-parametric coordinates.

mtllib Triangle.mtl
g default
v -0.500000 0.334374 0.500000
v -0.500000 0.500000 0.500000
v -0.500000 0.500000 -0.500000
v 0.500000 0.500000 -0.500000
v -0.500000 0.334374 -0.500000
v 0.500000 0.334374 -0.500000
vt 0.375000 0.000000
vt 0.375000 0.250000
vt 0.375000 0.500000
vt 0.625000 0.500000
vt 0.375000 0.750000
vt 0.625000 0.750000
vt 0.375000 1.000000
vt 0.125000 0.000000
vt 0.125000 0.250000
vt 0.000000 0.000000
vt 0.117116 0.000000
vt 0.117116 1.000000
vt 0.000000 1.000000
vn 0.483461 0.729747 0.483461
vn 0.483461 0.729747 0.483461
vn 0.000000 1.000000 0.000000
vn 0.000000 0.000000 -1.000000
vn 0.000000 0.000000 -1.000000
vn 0.000000 0.000000 -1.000000
vn 0.000000 0.000000 -1.000000
vn -1.000000 0.000000 0.000000
vn -1.000000 0.000000 0.000000
vn -1.000000 0.000000 0.000000
vn -1.000000 0.000000 0.000000
vn 0.000000 -1.000000 0.000000
vn 0.483461 -0.729747 0.483461
vn 0.483461 -0.729747 0.483461
s 1
g pCube1
usemtl initialShadingGroup
f 2/2/1 4/4/2 3/3/3
s off
f 3/3/4 4/4/5 6/6/6 5/5/7
f 5/8/8 1/1/9 2/2/10 3/9/11
s 1
f 5/5/12 6/6/13 1/7/14
f 2/10/1 1/11/14 6/12/13 4/13/2
